<?xml version="1.0" encoding="UTF-8"?>
<svg xmlns="http://www.w3.org/2000/svg" version="1.1" viewBox="0 0 1000 1000">
  <defs>
    <style>
      .cls-1, .cls-2 {
        display: none;
      }

      .cls-3, .cls-2 {
        fill: #ef1224;
      }

      .cls-4 {
        fill: #0d1319;
      }
    </style>
  </defs>
  <!-- Generator: Adobe Illustrator 28.6.0, SVG Export Plug-In . SVG Version: 1.2.0 Build 709)  -->
  <g>
    <g id="Vrstva_1">
      <path class="cls-3" d="M100.8,234.9v575.6h767.5V234.9H100.8ZM312.6,488.4l-147.8,182.7v-302.5l147.8,119.8ZM180.2,298.8h608.7l-304.4,246.7-304.4-246.7ZM362.2,528.7l122.3,99.1,122.5-99.3,179.5,218H185.9l176.3-217.9ZM656.7,488.3l147.6-119.6v299l-147.6-179.3Z"/>
      <path class="cls-2" d="M677.7,779.1l-85-164c-.2,0-47.7,23.4-49.8,24.4-54.1,26.2-164.1-188.8-111.3-217.1l50.3-24.8-84.3-164.6-50.8,25.1c-173.9,90.7,102.2,627.2,280,546,2.9-1.3,50.7-24.8,50.9-24.9Z"/>
      <g class="cls-1">
        <path class="cls-3" d="M484.6,459.1c-34.9,0-63.6,28.7-63.6,63.6s28.7,63.5,63.6,63.5,63.5-28.3,63.5-63.5-28.2-63.6-63.5-63.6Z"/>
        <path class="cls-3" d="M561.7,367.9c-20.3-.9-26.4-1.4-77.2-1.4s-56.9.4-76.8,1.4c-51.6,2.2-75.9,26.4-78.1,78-.9,19.9-1.3,26.1-1.3,76.8s.4,56.9,1.3,76.7c2.2,51.2,26,75.9,78.1,78.1,19.9,1.3,26,1.3,76.8,1.3s56.9,0,77.2-1.3c51.6-2.2,75.5-26.5,78.1-78.1.9-19.8.9-26,.9-76.7s0-56.9-.9-76.8c-2.6-51.6-26.5-75.9-78.1-78ZM484.6,620.6c-53.9,0-98-44.1-98-97.9s44.1-98,98-98,97.9,44.1,97.9,98-43.7,97.9-97.9,97.9ZM586.5,443.7c-12.8,0-22.9-10.1-22.9-22.5s10.1-23,22.9-23,22.4,10.1,22.4,23-10.1,22.5-22.4,22.5Z"/>
        <path class="cls-3" d="M656.9,233h-344.7c-64.8,0-117.3,52.5-117.3,117.3v344.7c0,64.8,52.5,117.3,117.3,117.3h344.7c64.8,0,117.3-52.5,117.3-117.3v-344.7c0-64.8-52.5-117.3-117.3-117.3ZM673.8,601.2c-3,69.2-41.5,107.6-110.7,110.7-20.3.9-26.9,1.4-78.5,1.4s-58.3-.4-78.5-1.4c-69.3-3-107.7-41.4-110.8-110.7-.9-20.4-1.3-26.9-1.3-78.5s.5-58.3,1.3-78.5c3.1-69.3,41.5-107.7,110.8-110.7,20.2-.9,26.9-1.3,78.5-1.3s58.2.5,78.5,1.3c69.2,3.1,107.7,41.5,110.7,110.7.9,20.3,1.4,26.9,1.4,78.5s-.5,58.2-1.4,78.5Z"/>
      </g>
      <path class="cls-2" d="M656.9,233h-344.7c-64.8,0-117.3,52.5-117.3,117.3v344.7c0,64.8,52.5,117.3,117.3,117.3h344.7c64.8,0,117.3-52.5,117.3-117.3v-344.7c0-64.8-52.5-117.3-117.3-117.3ZM586.7,390.7h-37c-28.8,0-34.7,14.2-34.7,34.3v44.9h69.5l-9.2,69.9h-60.3v180.2h-72.3v-180.2h-60.4v-69.9h60.4v-51.7c0-59.9,36.5-92.8,90.1-92.8s47.6,2.3,53.9,2.7v62.7Z"/>
      <g class="cls-1">
        <polygon class="cls-4" points="285.9 402.1 399.4 189.3 189.3 402.1 399.4 614.8 247.6 402.1 285.9 402.1"/>
        <polygon class="cls-4" points="164.6 402 140.9 402 235.1 270 104.7 402 235.1 534.1 164.6 402"/>
        <polygon class="cls-4" points="714.1 402 600.6 614.8 810.7 402 600.6 189.3 752.4 402 714.1 402"/>
        <polygon class="cls-4" points="859.1 402.1 764.9 534.1 895.3 402.1 764.9 270 835.4 402.1 859.1 402.1"/>
        <path class="cls-4" d="M196.3,731.2c-2.5-4.9-5.8-8.7-10-11.4-4.2-2.7-9-4-14.2-4s-8.4.9-11.7,2.7c-3.3,1.8-5.9,4.2-7.8,7.2v-9h-19.4v93.5h19.4v-39c1.9,2.9,4.5,5.2,7.9,7,3.4,1.8,7.2,2.7,11.6,2.7s9.9-1.3,14.2-4c4.2-2.7,7.6-6.5,10-11.5,2.5-5,3.7-10.7,3.7-17.2s-1.2-12.2-3.7-17.1ZM176.2,759.8c-2.7,2.8-6,4.3-9.9,4.3s-7.1-1.4-9.8-4.2-4-6.6-4-11.5,1.3-8.7,4-11.5,6-4.2,9.8-4.2,7.2,1.4,9.9,4.1c2.7,2.8,4,6.6,4,11.4s-1.4,8.7-4.1,11.5Z"/>
        <path class="cls-4" d="M252.7,716.8v9c-1.8-2.9-4.4-5.3-7.8-7.2-3.4-1.8-7.3-2.7-11.8-2.7s-9.9,1.3-14.2,4c-4.2,2.6-7.6,6.4-10,11.4s-3.7,10.6-3.7,17.1,1.2,12.2,3.7,17.2c2.5,5,5.8,8.8,10,11.5,4.2,2.7,8.9,4,14.1,4s8.4-.9,11.7-2.7c3.4-1.8,6-4.2,7.9-7.1v9h19.4v-63.3h-19.4ZM248.6,759.9c-2.7,2.8-6,4.2-9.8,4.2s-7.1-1.4-9.8-4.3c-2.7-2.8-4-6.7-4-11.5s1.3-8.6,4-11.4c2.7-2.8,6-4.1,9.8-4.1s7.1,1.4,9.8,4.2c2.7,2.8,4,6.6,4,11.5s-1.3,8.7-4,11.5Z"/>
        <path class="cls-4" d="M304.4,727.3v-10.6h-19.4v63.3h19.4v-29.4c0-5.2,1.2-8.9,3.6-11,2.4-2.1,6.1-3.1,10.9-3.1h5.3v-20.5c-4.2,0-7.9,1-11.4,3-3.4,2-6.2,4.7-8.5,8.2Z"/>
        <polygon class="cls-4" points="361.6 756.4 347 716.8 325.3 716.8 351.1 777.9 336.6 810.2 357.4 810.2 397.2 716.8 376.2 716.8 361.6 756.4"/>
        <path class="cls-4" d="M441.7,716.1c-4.2,0-7.9.8-11.2,2.4-3.3,1.6-6,3.8-7.9,6.6v-8.4h-19.4v63.3h19.4v-34.4c0-4.2,1.1-7.5,3.3-9.9,2.2-2.3,5.1-3.5,8.9-3.5s6.7,1.2,8.9,3.5c2.2,2.3,3.3,5.6,3.3,9.9v34.4h19.3v-37c0-8.4-2.2-15-6.6-19.8-4.4-4.8-10.3-7.2-17.8-7.2Z"/>
        <path class="cls-4" d="M558.1,696.1v32.9c-2.2-3.6-5.4-6.6-9.5-8.8-4.2-2.2-8.7-3.4-13.5-3.4s-10.6,1.3-15.2,4c-4.5,2.7-8,6.4-10.6,11.2-2.6,4.8-3.9,10.4-3.9,16.7s1.3,11.9,3.9,16.8c2.6,4.9,6.1,8.7,10.6,11.5,4.5,2.7,9.5,4.1,15,4.1s10.1-1.2,14.1-3.6c4-2.4,7-5.4,9.1-9.1v11.7h10.4v-84h-10.4ZM555.3,761.2c-1.9,3.5-4.4,6.2-7.7,8.1-3.2,1.9-6.8,2.8-10.6,2.8s-7.4-.9-10.6-2.8c-3.2-1.9-5.7-4.5-7.6-8.1-1.9-3.5-2.8-7.7-2.8-12.4s.9-8.8,2.8-12.3c1.9-3.5,4.4-6.1,7.6-7.9,3.2-1.8,6.7-2.7,10.6-2.7s7.4.9,10.6,2.8c3.2,1.9,5.8,4.5,7.7,8,1.9,3.5,2.8,7.6,2.8,12.3s-.9,8.8-2.8,12.3Z"/>
        <path class="cls-4" d="M641.7,746.6c0-5.7-1.2-10.8-3.7-15.3-2.5-4.5-6-8-10.5-10.6-4.5-2.6-9.8-3.9-15.7-3.9s-11.4,1.3-16.1,3.9c-4.7,2.6-8.3,6.3-10.8,11.2-2.6,4.8-3.9,10.5-3.9,16.9s1.3,12.1,4,17c2.6,4.9,6.3,8.6,11,11.3,4.7,2.7,9.9,4,15.8,4s13.6-1.9,18.6-5.6c5-3.7,8.3-8.6,10-14.6h-11.1c-1.2,3.5-3.3,6.3-6.3,8.3-3,2.1-6.7,3.1-11.2,3.1s-10.1-1.7-13.9-5.2c-3.8-3.4-5.9-8.2-6.3-14.4h49.7c.2-2.2.3-4.3.3-6.2ZM591.7,744.5c.5-5.9,2.6-10.5,6.3-13.8,3.7-3.3,8.1-5,13.3-5s6.9.7,9.9,2.2c3,1.5,5.3,3.6,7.1,6.5,1.7,2.8,2.6,6.2,2.6,10.2h-39.3Z"/>
        <path class="cls-4" d="M688.6,748.7c-2.8-1.2-6.4-2.4-10.9-3.6-3.6-1-6.3-1.9-8.3-2.7-2-.8-3.7-1.9-5-3.2-1.3-1.3-2-3-2-5.1s1.1-4.7,3.3-6.2c2.2-1.6,5.1-2.4,8.9-2.4s7.2,1,9.6,3c2.4,2,3.7,4.6,3.9,7.8h10.3c-.3-6.1-2.6-10.8-6.8-14.3-4.2-3.5-9.8-5.2-16.7-5.2s-8.4.8-11.9,2.3c-3.5,1.6-6.2,3.7-8.1,6.3s-2.8,5.6-2.8,8.7,1,7.2,3.1,9.7c2.1,2.5,4.6,4.3,7.5,5.6,2.9,1.2,6.7,2.5,11.3,3.7,5.1,1.3,8.8,2.6,11.2,3.9,2.4,1.3,3.6,3.3,3.6,6.1s-1.1,4.8-3.4,6.6c-2.3,1.7-5.4,2.6-9.3,2.6s-7.7-1-10.3-2.9c-2.6-2-4.1-4.5-4.4-7.6h-10.7c.2,3.8,1.4,7.1,3.6,10,2.2,2.9,5.2,5.2,9,6.8,3.8,1.6,8.1,2.4,12.8,2.4s8.4-.8,11.9-2.3c3.4-1.6,6.1-3.7,8-6.4,1.9-2.7,2.8-5.8,2.8-9.2,0-3.8-1.1-6.8-3.1-9.2-2-2.3-4.4-4.1-7.2-5.3Z"/>
        <path class="cls-4" d="M717.6,693.7c-2,0-3.6.7-5,2-1.4,1.4-2,3-2,5s.7,3.6,2,5c1.4,1.4,3,2,5,2s3.5-.7,4.8-2c1.3-1.4,2-3,2-5s-.7-3.6-2-5c-1.3-1.4-2.9-2-4.8-2Z"/>
        <rect class="cls-4" x="712.3" y="717.9" width="10.3" height="62.2"/>
        <path class="cls-4" d="M787.9,717.9v11.4c-2-3.6-5-6.5-9-8.9-4-2.3-8.8-3.5-14.1-3.5s-10.5,1.3-15,4c-4.5,2.7-8,6.4-10.6,11.2-2.6,4.8-3.9,10.4-3.9,16.7s1.3,11.9,3.9,16.8c2.6,4.9,6.1,8.7,10.6,11.5,4.5,2.7,9.5,4.1,15,4.1s10.1-1.2,14.1-3.6c4-2.4,7-5.5,9.1-9.1v13.1c0,6.4-1.8,11.4-5.4,15-3.6,3.6-8.2,5.3-13.9,5.3s-9.3-1.2-12.8-3.5c-3.6-2.3-5.9-5.4-7-9.1h-10.2c1,6.7,4.2,11.9,9.6,15.8,5.4,3.9,12.3,5.8,20.4,5.8s11.2-1.2,15.7-3.7c4.5-2.5,8-6,10.4-10.4,2.4-4.4,3.6-9.5,3.6-15.2v-63.6h-10.4ZM785,761.2c-1.9,3.5-4.4,6.2-7.7,8.1-3.2,1.9-6.8,2.8-10.6,2.8s-7.4-.9-10.6-2.8c-3.2-1.9-5.7-4.5-7.6-8.1-1.9-3.5-2.8-7.7-2.8-12.4s.9-8.8,2.8-12.3c1.9-3.5,4.4-6.1,7.6-7.9,3.2-1.8,6.7-2.7,10.6-2.7s7.4.9,10.6,2.8c3.2,1.9,5.8,4.5,7.7,8,1.9,3.5,2.8,7.6,2.8,12.3s-.9,8.8-2.8,12.3Z"/>
        <path class="cls-4" d="M845,716.8c-4.2,0-8.1.9-11.6,2.6-3.5,1.7-6.3,4.2-8.3,7.4v-8.9h-10.3v62.2h10.3v-34.4c0-6.5,1.6-11.5,4.8-14.9,3.2-3.4,7.5-5.1,13-5.1s9.6,1.6,12.7,4.9c3.1,3.3,4.7,8,4.7,14.2v35.2h10.2v-36.7c0-8.6-2.3-15.2-7-19.8-4.7-4.6-10.8-6.9-18.4-6.9Z"/>
        <path class="cls-4" d="M592.4,291.5v62.4c-4.5-6.1-10.7-11.1-18.4-14.8-7.7-3.7-16-5.5-24.5-5.5s-21.3,2.8-30.6,8.3c-7.9,4.7-14.4,11.3-19.4,19.8-5-7.9-11.3-14.2-18.8-19-9.3-5.7-19.4-8.5-30.4-8.5s-18.3,2-25.7,5.9c-7.5,4-13.2,9.1-17.4,15.6v-19.4h-33.6v175.4h33.6v-62.4c4.5,6.1,10.6,11.1,18.6,14.8,7.7,3.8,15.8,5.5,24.3,5.5s21.3-2.8,30.6-8.3c7.9-4.7,14.4-11.3,19.4-19.7,4.9,7.9,11.2,14.2,18.8,19,9.3,5.7,19.3,8.5,30.4,8.5s18.4-2,25.9-5.9c7.3-3.9,13.2-9.1,17.2-15.6v19.3h33.8v-175.3h-33.8ZM447.7,417.5c-31.3-4.5-21.4-30.8-16.8-41.8,0,0,30.2,28.9,56.7,30,0,0-8.6,16.3-39.9,11.8ZM552.3,417.5c-31.3,4.5-39.9-11.8-39.9-11.8,26.6-1,56.7-30,56.7-30,4.5,11,14.5,37.3-16.8,41.8Z"/>
      </g>
    </g>
  </g>
</svg>